<?xml version="1.0" encoding="utf-8"?>
<!-- Svg Vector Icons : http://www.onlinewebfonts.com/icon -->
<!DOCTYPE svg PUBLIC "-//W3C//DTD SVG 1.1//EN" "http://www.w3.org/Graphics/SVG/1.1/DTD/svg11.dtd">
<svg version="1.1" xmlns="http://www.w3.org/2000/svg" xmlns:xlink="http://www.w3.org/1999/xlink" x="0px" y="0px" viewBox="0 0 1000 1000" enable-background="new 0 0 1000 1000" xml:space="preserve">
<metadata> Svg Vector Icons : http://www.onlinewebfonts.com/icon </metadata>
<g><path d="M969.5,907.2L700.1,637.7c52.9-66.2,84.6-150.2,84.6-241.6c0-213.9-173.4-387.3-387.3-387.3C183.4,8.9,10,182.3,10,396.2c0,213.9,173.4,387.3,387.3,387.3c90.1,0,173-30.8,238.8-82.3l268.4,268.4c22.8,22.8,52.3,27.7,66.4,13.6l9.8-9.8C995.6,958.6,993.1,930.7,969.5,907.2z M402.1,697.9c-164.2,0-297.2-133.1-297.2-297.2c0-164.2,133.1-297.2,297.2-297.2c164.2,0,297.2,133.1,297.2,297.2C699.3,564.8,566.3,697.9,402.1,697.9z"/></g>
</svg>